<svg width="692" height="94" viewBox="0 0 692 94" fill="none" xmlns="http://www.w3.org/2000/svg">
<g clip-path="url(#clip0_980_75)">
<path d="M71.8844 81.9929C71.7961 81.9929 71.7961 82.0812 71.7961 82.0812C71.3546 82.3461 71.0014 82.6992 70.7365 83.229C70.4716 83.229 70.3833 83.4056 70.295 83.6705C70.2067 83.7588 70.1185 83.8471 70.1185 83.8471C69.4121 84.2886 68.7057 84.9067 68.1759 85.613C67.9993 85.613 67.9993 85.613 67.9993 85.7896C66.9398 86.6726 65.7919 87.4672 64.7324 88.3502C64.3792 88.4385 64.2026 88.6151 63.9377 88.88H63.8494C63.6728 88.7917 63.6728 88.88 63.5845 89.0566C62.525 89.4981 61.5537 90.1161 60.5825 90.7342C60.141 90.9108 59.6112 90.9991 59.258 91.3523H59.1697L59.0814 91.4406C57.4038 91.9703 55.8145 92.5884 54.1368 93.1182C54.0485 93.1182 53.9602 93.1182 53.7836 93.1182C49.4571 94.1778 45.1306 94.2661 40.7158 93.4714C38.3318 93.0299 36.0361 92.1469 33.7404 91.3523L33.6521 91.264H33.5638C33.2106 90.9108 32.6808 90.7342 32.2394 90.6459C31.6213 90.2044 31.0032 89.8512 30.2968 89.5864C29.9437 89.1449 29.5022 88.9683 28.9724 88.7917C28.7958 88.5268 28.5309 88.3502 28.1777 88.2619C28.0894 88.1736 28.0011 88.1736 27.9128 88.0853C27.5597 87.6438 27.1182 87.2907 26.5884 87.1141C26.4118 86.9375 26.1469 86.7609 25.9703 86.5843C25.7937 86.1428 25.4406 85.9662 24.9991 85.7896C24.9991 85.7013 24.9991 85.7013 24.9108 85.7013C24.8225 85.3481 24.5576 85.1715 24.2927 85.0832C24.2927 84.9066 24.2044 84.9067 24.1161 84.9067C24.0278 84.8184 23.9395 84.7301 23.8512 84.6418C23.7629 84.3769 23.5863 84.2003 23.3214 84.112C23.3214 83.9354 23.2331 83.9354 23.0566 83.8471C22.7917 83.5822 22.5268 83.3173 22.1736 82.9641C21.8204 82.3461 21.3789 81.9046 20.8491 81.4631C20.8491 81.2865 20.7609 81.2865 20.6726 81.1982C20.5843 81.1099 20.5843 81.0216 20.496 81.0216C20.496 80.7567 20.3194 80.5801 20.0545 80.4918C20.0545 80.4035 20.0545 80.4035 19.9662 80.4035C19.9662 80.2269 19.8779 80.2269 19.7896 80.2269C19.7013 80.0504 19.613 79.8738 19.4364 79.6972C19.3481 79.4323 19.2598 79.1674 18.9066 79.0791C18.9066 78.9025 18.8183 78.9025 18.73 78.8142C18.73 78.7259 18.73 78.6376 18.6417 78.6376C18.6417 78.461 18.6417 78.461 18.4651 78.461C18.4651 78.2844 18.4652 78.1961 18.2886 78.1961C18.2003 78.1078 18.2003 78.0195 18.112 77.9312C18.112 77.5781 17.9354 77.4015 17.6705 77.2249C14.7567 72.8101 12.5493 68.1304 11.0483 63.0092C10.6951 61.8613 10.4302 60.7135 10.1653 59.5656C9.98871 59.0359 9.90041 58.5944 9.19404 58.4178C4.33775 57.1816 1.24738 54.0913 0.276125 49.1467C-0.78343 43.9372 1.24738 39.699 5.66219 36.6969C5.75049 36.6969 5.83878 36.6086 5.83878 36.5203C7.07493 36.0788 8.22279 35.4608 9.45893 35.2842C9.98871 35.1959 9.98871 34.6661 10.077 34.3129C10.3419 33.1651 10.6951 31.9289 10.96 30.7811C11.6663 28.0439 12.9025 25.395 13.962 22.7461C14.0503 22.7461 14.0503 22.6578 14.0503 22.5695C14.4918 21.9514 14.845 21.3334 15.1099 20.5387C15.4631 20.1855 15.6397 19.744 15.8163 19.3025C16.0812 19.1259 16.2577 18.9494 16.1694 18.5962C16.4343 18.4196 16.6109 18.243 16.5226 17.8898C16.7875 17.8015 16.8758 17.5366 16.9641 17.2717C17.7588 16.3005 18.4652 15.3292 19.1715 14.2697C19.5247 14.0048 19.8779 13.6516 20.0545 13.2101C20.3194 13.1218 20.496 12.9452 20.5843 12.592C21.2906 12.0622 21.8204 11.3559 22.3502 10.6495C23.0566 10.208 23.6746 9.50166 24.2044 8.88358C24.7342 8.4421 25.3523 8.00062 25.882 7.55914C28.4426 5.44003 31.3564 3.8507 34.3585 2.34967C34.5351 2.34967 34.6234 2.26137 34.8 2.26137C39.3031 0.495441 43.8945 -0.210929 48.7508 0.05396C52.106 0.318849 55.2847 1.20182 58.4634 2.34967C58.4634 2.43796 58.5516 2.43796 58.6399 2.43796C60.2293 3.23262 61.7303 4.02729 63.2313 4.91025C65.4387 6.2347 67.3813 8.00062 69.4121 9.58996C69.5004 9.94314 69.7653 10.1197 70.0302 10.208C70.0302 10.4729 70.2067 10.5612 70.4716 10.6495C70.7365 11.1793 71.178 11.5325 71.6195 11.8857C72.8556 13.3867 74.0035 14.976 75.2396 16.4771C75.2396 16.5654 75.2396 16.5654 75.3279 16.6537C75.3279 16.8302 75.3279 16.8303 75.5045 16.9185C75.5045 17.0068 75.5928 17.0951 75.5928 17.0951C75.5928 17.1834 75.5928 17.2717 75.7694 17.2717C75.946 17.8015 76.2109 18.243 76.5641 18.5962C76.6524 19.0377 76.829 19.3908 77.1822 19.6557C77.1822 20.0089 77.3587 20.1855 77.6236 20.3621C77.6236 20.4504 77.6236 20.4504 77.7119 20.5387C77.8002 20.9802 77.9768 21.3334 78.33 21.6865C78.8598 22.9227 79.3896 24.2471 80.0959 25.395C80.0959 25.4833 80.0959 25.4833 80.1842 25.5716C80.2725 26.1014 80.3608 26.6311 80.8023 27.1609C81.1555 28.4853 81.597 29.7215 81.9501 31.0459C82.215 31.9289 82.3033 32.9002 82.7448 33.6948C82.7448 33.8714 82.7448 33.9597 82.8331 34.1363C82.7448 34.5778 82.8331 34.931 83.1863 35.1959C84.1576 35.7256 85.2171 35.9022 86.1884 36.2554C86.6298 36.6086 87.1596 36.8735 87.6894 37.0501C88.2192 37.6682 88.9256 38.1979 89.5436 38.6394C89.7202 38.9926 89.8968 39.2575 90.25 39.4341C90.3383 39.5224 90.4266 39.6107 90.4266 39.6107C90.5149 39.699 90.5149 39.7873 90.6032 39.8756C90.7798 40.3171 90.9564 40.6702 91.3096 40.9351C91.4861 41.3766 91.6627 41.8181 91.9276 42.2596C93.0755 45.3499 93.0755 48.4403 91.9276 51.5307C91.5744 51.8839 91.3978 52.3253 91.3096 52.8551C91.133 52.9434 91.0447 53.12 91.0447 53.2966C90.8681 53.2966 90.8681 53.3849 90.8681 53.5615C90.7798 53.5615 90.7798 53.6498 90.7798 53.7381C90.5149 53.8264 90.4266 54.003 90.4266 54.2679C90.25 54.2679 90.25 54.3562 90.25 54.4444C90.1617 54.4444 90.1617 54.5327 90.1617 54.621C89.8968 54.7093 89.8085 54.8859 89.7202 55.0625C89.6319 55.1508 89.5436 55.1508 89.5436 55.2391C89.2787 55.3274 89.1904 55.4157 89.1021 55.6806C88.3958 56.2104 87.6894 56.7401 86.983 57.2699C85.8352 57.7114 84.6873 58.3295 83.4512 58.5061C83.098 58.5944 82.8331 58.8593 82.7448 59.3007C82.215 61.8613 81.3321 64.2453 80.6257 66.7176C79.831 68.4835 79.0364 70.3378 78.2417 72.1037C77.8885 72.5452 77.6236 73.075 77.447 73.6047C77.0056 74.0462 76.829 74.576 76.5641 75.1058C76.4758 75.1058 76.4758 75.1941 76.4758 75.2824C76.2992 75.3706 76.1226 75.5472 76.1226 75.8121C76.0343 75.9004 76.0343 75.9004 76.0343 75.9887C75.8577 75.9887 75.8577 76.077 75.8577 76.2536C75.1513 77.1366 74.445 78.0195 73.9152 79.0791C73.4737 79.344 73.2088 79.6972 73.0322 80.1386C72.9439 80.1386 72.8556 80.227 72.8556 80.3152C72.7673 80.3152 72.7673 80.4035 72.7673 80.4918C72.5025 80.6684 72.2376 80.845 72.1493 81.1982C71.9727 81.1982 71.9727 81.2865 71.9727 81.3748C71.9727 81.8163 71.8844 81.8163 71.8844 81.9929ZM46.4551 57.4465C53.3422 57.4465 60.2293 57.4465 67.1164 57.4465C68.1759 57.4465 69.1472 57.3582 70.2068 57.005C74.9748 55.6806 78.1534 50.9126 77.5353 45.968C76.9173 40.9351 72.5907 36.9618 67.6462 36.9618C53.6071 36.9618 39.4797 36.9618 25.4406 36.9618C23.9395 36.9618 22.5268 37.315 21.2023 37.9331C16.6992 40.1405 14.4918 44.9085 15.6397 49.7647C16.6992 54.1796 20.8491 57.3582 25.7054 57.3582C32.5925 57.4465 39.4797 57.4465 46.4551 57.4465ZM47.6912 73.3398C47.6912 73.2515 47.6912 73.2515 47.6912 73.3398C44.336 73.3398 40.9807 73.3398 37.6254 73.3398C35.7712 73.3398 34.4468 74.576 34.4468 76.4302C34.4468 78.0195 35.7712 79.5206 37.5371 79.5206C44.2477 79.5206 50.9582 79.5206 57.6687 79.5206C59.3463 79.5206 60.759 78.0195 60.759 76.3419C60.759 74.6643 59.4346 73.3398 57.6687 73.3398C54.3134 73.2515 51.0465 73.3398 47.6912 73.3398Z" fill="white"/>
<path d="M37.4013 50.3361L31.1013 47.8011V46.2711L37.4013 43.7361V44.9961L32.3163 46.9461V47.1261L37.4013 49.0761V50.3361ZM38.903 55.2861L43.313 41.7861H44.498L40.088 55.2861H38.903ZM49.1498 52.4961C48.3898 52.4961 47.7098 52.3611 47.1098 52.0911C46.5098 51.8211 46.0348 51.4161 45.6848 50.8761C45.3448 50.3261 45.1748 49.6411 45.1748 48.8211V48.5061H46.4198V48.8211C46.4198 49.6911 46.6748 50.3411 47.1848 50.7711C47.6948 51.1911 48.3498 51.4011 49.1498 51.4011C49.9698 51.4011 50.5948 51.2161 51.0248 50.8461C51.4548 50.4761 51.6698 50.0111 51.6698 49.4511C51.6698 49.0611 51.5748 48.7511 51.3848 48.5211C51.1948 48.2911 50.9248 48.1061 50.5748 47.9661C50.2248 47.8161 49.8148 47.6861 49.3448 47.5761L48.5498 47.3811C47.9398 47.2211 47.3998 47.0261 46.9298 46.7961C46.4598 46.5661 46.0898 46.2661 45.8198 45.8961C45.5598 45.5161 45.4298 45.0311 45.4298 44.4411C45.4298 43.8511 45.5798 43.3411 45.8798 42.9111C46.1798 42.4811 46.5948 42.1511 47.1248 41.9211C47.6548 41.6911 48.2748 41.5761 48.9848 41.5761C49.6948 41.5761 50.3298 41.7011 50.8898 41.9511C51.4498 42.1911 51.8948 42.5511 52.2248 43.0311C52.5548 43.5011 52.7198 44.0961 52.7198 44.8161V45.4461H51.4748V44.8161C51.4748 44.3061 51.3648 43.8961 51.1448 43.5861C50.9348 43.2761 50.6398 43.0461 50.2598 42.8961C49.8898 42.7461 49.4648 42.6711 48.9848 42.6711C48.2948 42.6711 47.7398 42.8261 47.3198 43.1361C46.8998 43.4361 46.6898 43.8661 46.6898 44.4261C46.6898 44.7961 46.7748 45.0961 46.9448 45.3261C47.1248 45.5561 47.3798 45.7461 47.7098 45.8961C48.0398 46.0361 48.4348 46.1611 48.8948 46.2711L49.6898 46.4661C50.2898 46.5961 50.8348 46.7761 51.3248 47.0061C51.8148 47.2261 52.1998 47.5311 52.4798 47.9211C52.7698 48.3011 52.9148 48.8011 52.9148 49.4211C52.9148 50.0411 52.7598 50.5811 52.4498 51.0411C52.1398 51.5011 51.6998 51.8611 51.1298 52.1211C50.5698 52.3711 49.9098 52.4961 49.1498 52.4961ZM48.5798 54.0261V40.0461H49.7348V54.0261H48.5798ZM55.154 50.3361V49.0761L60.254 47.1261V46.9461L55.154 44.9961V43.7361L61.454 46.2711V47.8011L55.154 50.3361Z" fill="#05FFEF"/>
<path d="M119.152 84.6362L139.762 21.6362H150.022L170.632 84.6362H164.602L159.202 67.8962H130.582L125.182 84.6362H119.152ZM132.202 62.6762H157.582L145.432 25.0562H144.352L132.202 62.6762ZM201.707 85.8962C197.207 85.8962 193.247 85.1162 189.827 83.5562C186.467 81.9362 183.827 79.5062 181.907 76.2662C179.987 73.0262 179.027 68.9462 179.027 64.0262V21.6362H184.787V64.0262C184.787 69.6662 186.257 73.8662 189.197 76.6262C192.197 79.3262 196.367 80.6762 201.707 80.6762C207.047 80.6762 211.187 79.3262 214.127 76.6262C217.127 73.8662 218.627 69.6662 218.627 64.0262V21.6362H224.387V64.0262C224.387 68.9462 223.427 73.0262 221.507 76.2662C219.647 79.5062 217.007 81.9362 213.587 83.5562C210.167 85.1162 206.207 85.8962 201.707 85.8962ZM255.173 84.6362V26.8562H234.113V21.6362H281.993V26.8562H260.933V84.6362H255.173ZM311.573 85.8962C304.193 85.8962 298.313 83.7362 293.933 79.4162C289.553 75.0362 287.363 68.6462 287.363 60.2462V46.0262C287.363 37.6262 289.553 31.2662 293.933 26.9462C298.313 22.5662 304.193 20.3762 311.573 20.3762C318.953 20.3762 324.833 22.5662 329.213 26.9462C333.593 31.2662 335.783 37.6262 335.783 46.0262V60.2462C335.783 68.6462 333.593 75.0362 329.213 79.4162C324.833 83.7362 318.953 85.8962 311.573 85.8962ZM311.573 80.6762C317.453 80.6762 321.983 78.9062 325.163 75.3662C328.403 71.8262 330.023 66.8462 330.023 60.4262V45.8462C330.023 39.4262 328.403 34.4462 325.163 30.9062C321.983 27.3662 317.453 25.5962 311.573 25.5962C305.753 25.5962 301.223 27.3662 297.983 30.9062C294.743 34.4462 293.123 39.4262 293.123 45.8462V60.4262C293.123 66.8462 294.743 71.8262 297.983 75.3662C301.223 78.9062 305.753 80.6762 311.573 80.6762Z" fill="white"/>
<path d="M345.684 84.6362V74.1962H353.964V32.0762H345.684V21.6362H378.084C381.924 21.6362 385.254 22.2962 388.074 23.6162C390.954 24.8762 393.174 26.7062 394.734 29.1062C396.354 31.4462 397.164 34.2662 397.164 37.5662V38.4662C397.164 41.3462 396.624 43.7162 395.544 45.5762C394.464 47.3762 393.174 48.7862 391.674 49.8062C390.234 50.7662 388.854 51.4562 387.534 51.8762V53.4962C388.854 53.8562 390.294 54.5462 391.854 55.5662C393.414 56.5262 394.734 57.9362 395.814 59.7962C396.954 61.6562 397.524 64.0862 397.524 67.0862V67.9862C397.524 71.4662 396.714 74.4662 395.094 76.9862C393.474 79.4462 391.224 81.3362 388.344 82.6562C385.524 83.9762 382.224 84.6362 378.444 84.6362H345.684ZM365.844 73.8362H377.004C379.584 73.8362 381.654 73.2062 383.214 71.9462C384.834 70.6862 385.644 68.8862 385.644 66.5462V65.6462C385.644 63.3062 384.864 61.5062 383.304 60.2462C381.744 58.9862 379.644 58.3562 377.004 58.3562H365.844V73.8362ZM365.844 47.5562H376.824C379.284 47.5562 381.294 46.9262 382.854 45.6662C384.474 44.4062 385.284 42.6662 385.284 40.4462V39.5462C385.284 37.2662 384.504 35.5262 382.944 34.3262C381.384 33.0662 379.344 32.4362 376.824 32.4362H365.844V47.5562ZM431.73 85.8962C423.81 85.8962 417.51 83.7362 412.83 79.4162C408.15 75.0362 405.81 68.7962 405.81 60.6962V45.5762C405.81 37.4762 408.15 31.2662 412.83 26.9462C417.51 22.5662 423.81 20.3762 431.73 20.3762C439.65 20.3762 445.95 22.5662 450.63 26.9462C455.31 31.2662 457.65 37.4762 457.65 45.5762V60.6962C457.65 68.7962 455.31 75.0362 450.63 79.4162C445.95 83.7362 439.65 85.8962 431.73 85.8962ZM431.73 75.2762C436.17 75.2762 439.62 73.9862 442.08 71.4062C444.54 68.8262 445.77 65.3762 445.77 61.0562V45.2162C445.77 40.8962 444.54 37.4462 442.08 34.8662C439.62 32.2862 436.17 30.9962 431.73 30.9962C427.35 30.9962 423.9 32.2862 421.38 34.8662C418.92 37.4462 417.69 40.8962 417.69 45.2162V61.0562C417.69 65.3762 418.92 68.8262 421.38 71.4062C423.9 73.9862 427.35 75.2762 431.73 75.2762ZM492.37 85.8962C487.21 85.8962 482.77 84.9662 479.05 83.1062C475.39 81.1862 472.57 78.4862 470.59 75.0062C468.67 71.4662 467.71 67.2962 467.71 62.4962V21.6362H479.59V62.8562C479.59 66.6962 480.67 69.7262 482.83 71.9462C485.05 74.1662 488.23 75.2762 492.37 75.2762C496.51 75.2762 499.66 74.1662 501.82 71.9462C504.04 69.7262 505.15 66.6962 505.15 62.8562V21.6362H517.03V62.4962C517.03 67.2962 516.04 71.4662 514.06 75.0062C512.14 78.4862 509.32 81.1862 505.6 83.1062C501.94 84.9662 497.53 85.8962 492.37 85.8962ZM528.539 84.6362V21.6362H551.129L563.639 76.5362H565.259V21.6362H576.959V84.6362H554.369L541.859 29.7362H540.239V84.6362H528.539ZM603.412 84.6362V32.4362H585.052V21.6362H633.652V32.4362H615.292V84.6362H603.412ZM657.942 84.6362V62.9462L636.522 21.6362H649.752L663.072 48.6362H664.692L678.012 21.6362H691.242L669.822 62.9462V84.6362H657.942Z" fill="#05FFEF"/>
</g>
<defs>
<clipPath id="clip0_980_75">
<rect width="692" height="94" fill="white"/>
</clipPath>
</defs>
</svg>
