<svg width="692" height="94" viewBox="0 0 692 94" fill="none" xmlns="http://www.w3.org/2000/svg">
<g clip-path="url(#clip0_981_99)">
<mask id="mask0_981_99" style="mask-type:luminance" maskUnits="userSpaceOnUse" x="0" y="0" width="692" height="94">
<path d="M692 0H0V94H692V0Z" fill="white"/>
</mask>
<g mask="url(#mask0_981_99)">
<path d="M71.8844 81.9929C71.7961 81.9929 71.7961 82.0812 71.7961 82.0812C71.3546 82.3461 71.0014 82.6992 70.7365 83.229C70.4716 83.229 70.3833 83.4056 70.295 83.6705C70.2067 83.7588 70.1185 83.8471 70.1185 83.8471C69.4121 84.2886 68.7057 84.9067 68.1759 85.613C67.9993 85.613 67.9993 85.613 67.9993 85.7896C66.9398 86.6726 65.7919 87.4672 64.7324 88.3502C64.3792 88.4385 64.2026 88.6151 63.9377 88.88H63.8494C63.6728 88.7917 63.6728 88.88 63.5845 89.0566C62.525 89.4981 61.5537 90.1161 60.5825 90.7342C60.141 90.9108 59.6112 90.9991 59.258 91.3523H59.1697L59.0814 91.4406C57.4038 91.9703 55.8145 92.5884 54.1368 93.1182C54.0485 93.1182 53.9602 93.1182 53.7836 93.1182C49.4571 94.1778 45.1306 94.2661 40.7158 93.4714C38.3318 93.0299 36.0361 92.1469 33.7404 91.3523L33.6521 91.264H33.5638C33.2106 90.9108 32.6808 90.7342 32.2394 90.6459C31.6213 90.2044 31.0032 89.8512 30.2968 89.5864C29.9437 89.1449 29.5022 88.9683 28.9724 88.7917C28.7958 88.5268 28.5309 88.3502 28.1777 88.2619C28.0894 88.1736 28.0011 88.1736 27.9128 88.0853C27.5597 87.6438 27.1182 87.2907 26.5884 87.1141C26.4118 86.9375 26.1469 86.7609 25.9703 86.5843C25.7937 86.1428 25.4406 85.9662 24.9991 85.7896C24.9991 85.7013 24.9991 85.7013 24.9108 85.7013C24.8225 85.3481 24.5576 85.1715 24.2927 85.0832C24.2927 84.9066 24.2044 84.9067 24.1161 84.9067C24.0278 84.8184 23.9395 84.7301 23.8512 84.6418C23.7629 84.3769 23.5863 84.2003 23.3214 84.112C23.3214 83.9354 23.2331 83.9354 23.0566 83.8471C22.7917 83.5822 22.5268 83.3173 22.1736 82.9641C21.8204 82.3461 21.3789 81.9046 20.8491 81.4631C20.8491 81.2865 20.7609 81.2865 20.6726 81.1982C20.5843 81.1099 20.5843 81.0216 20.496 81.0216C20.496 80.7567 20.3194 80.5801 20.0545 80.4918C20.0545 80.4035 20.0545 80.4035 19.9662 80.4035C19.9662 80.2269 19.8779 80.2269 19.7896 80.2269C19.7013 80.0504 19.613 79.8738 19.4364 79.6972C19.3481 79.4323 19.2598 79.1674 18.9066 79.0791C18.9066 78.9025 18.8183 78.9025 18.73 78.8142C18.73 78.7259 18.73 78.6376 18.6417 78.6376C18.6417 78.461 18.6417 78.461 18.4651 78.461C18.4651 78.2844 18.4652 78.1961 18.2886 78.1961C18.2003 78.1078 18.2003 78.0195 18.112 77.9312C18.112 77.5781 17.9354 77.4015 17.6705 77.2249C14.7567 72.8101 12.5493 68.1304 11.0483 63.0092C10.6951 61.8613 10.4302 60.7135 10.1653 59.5656C9.98871 59.0359 9.90041 58.5944 9.19404 58.4178C4.33775 57.1816 1.24738 54.0913 0.276125 49.1467C-0.78343 43.9372 1.24738 39.699 5.66219 36.6969C5.75049 36.6969 5.83878 36.6086 5.83878 36.5203C7.07493 36.0788 8.22279 35.4608 9.45893 35.2842C9.98871 35.1959 9.98871 34.6661 10.077 34.3129C10.3419 33.1651 10.6951 31.9289 10.96 30.7811C11.6663 28.0439 12.9025 25.395 13.962 22.7461C14.0503 22.7461 14.0503 22.6578 14.0503 22.5695C14.4918 21.9514 14.845 21.3334 15.1099 20.5387C15.4631 20.1855 15.6397 19.744 15.8163 19.3025C16.0812 19.1259 16.2577 18.9494 16.1694 18.5962C16.4343 18.4196 16.6109 18.243 16.5226 17.8898C16.7875 17.8015 16.8758 17.5366 16.9641 17.2717C17.7588 16.3005 18.4652 15.3292 19.1715 14.2697C19.5247 14.0048 19.8779 13.6516 20.0545 13.2101C20.3194 13.1218 20.496 12.9452 20.5843 12.592C21.2906 12.0622 21.8204 11.3559 22.3502 10.6495C23.0566 10.208 23.6746 9.50166 24.2044 8.88358C24.7342 8.4421 25.3523 8.00062 25.882 7.55914C28.4426 5.44003 31.3564 3.8507 34.3585 2.34967C34.5351 2.34967 34.6234 2.26137 34.8 2.26137C39.3031 0.495441 43.8945 -0.210929 48.7508 0.05396C52.106 0.318849 55.2847 1.20182 58.4634 2.34967C58.4634 2.43796 58.5516 2.43796 58.6399 2.43796C60.2293 3.23262 61.7303 4.02729 63.2313 4.91025C65.4387 6.2347 67.3813 8.00062 69.4121 9.58996C69.5004 9.94314 69.7653 10.1197 70.0302 10.208C70.0302 10.4729 70.2067 10.5612 70.4716 10.6495C70.7365 11.1793 71.178 11.5325 71.6195 11.8857C72.8556 13.3867 74.0035 14.976 75.2396 16.4771C75.2396 16.5654 75.2396 16.5654 75.3279 16.6537C75.3279 16.8302 75.3279 16.8303 75.5045 16.9185C75.5045 17.0068 75.5928 17.0951 75.5928 17.0951C75.5928 17.1834 75.5928 17.2717 75.7694 17.2717C75.946 17.8015 76.2109 18.243 76.5641 18.5962C76.6524 19.0377 76.829 19.3908 77.1822 19.6557C77.1822 20.0089 77.3587 20.1855 77.6236 20.3621C77.6236 20.4504 77.6236 20.4504 77.7119 20.5387C77.8002 20.9802 77.9768 21.3334 78.33 21.6865C78.8598 22.9227 79.3896 24.2471 80.0959 25.395C80.0959 25.4833 80.0959 25.4833 80.1842 25.5716C80.2725 26.1014 80.3608 26.6311 80.8023 27.1609C81.1555 28.4853 81.597 29.7215 81.9501 31.0459C82.215 31.9289 82.3033 32.9002 82.7448 33.6948C82.7448 33.8714 82.7448 33.9597 82.8331 34.1363C82.7448 34.5778 82.8331 34.931 83.1863 35.1959C84.1576 35.7256 85.2171 35.9022 86.1884 36.2554C86.6298 36.6086 87.1596 36.8735 87.6894 37.0501C88.2192 37.6682 88.9256 38.1979 89.5436 38.6394C89.7202 38.9926 89.8968 39.2575 90.25 39.4341C90.3383 39.5224 90.4266 39.6107 90.4266 39.6107C90.5149 39.699 90.5149 39.7873 90.6032 39.8756C90.7798 40.3171 90.9564 40.6702 91.3096 40.9351C91.4861 41.3766 91.6627 41.8181 91.9276 42.2596C93.0755 45.3499 93.0755 48.4403 91.9276 51.5307C91.5744 51.8839 91.3978 52.3253 91.3096 52.8551C91.133 52.9434 91.0447 53.12 91.0447 53.2966C90.8681 53.2966 90.8681 53.3849 90.8681 53.5615C90.7798 53.5615 90.7798 53.6498 90.7798 53.7381C90.5149 53.8264 90.4266 54.003 90.4266 54.2679C90.25 54.2679 90.25 54.3562 90.25 54.4444C90.1617 54.4444 90.1617 54.5327 90.1617 54.621C89.8968 54.7093 89.8085 54.8859 89.7202 55.0625C89.6319 55.1508 89.5436 55.1508 89.5436 55.2391C89.2787 55.3274 89.1904 55.4157 89.1021 55.6806C88.3958 56.2104 87.6894 56.7401 86.983 57.2699C85.8352 57.7114 84.6873 58.3295 83.4512 58.5061C83.098 58.5944 82.8331 58.8593 82.7448 59.3007C82.215 61.8613 81.3321 64.2453 80.6257 66.7176C79.831 68.4835 79.0364 70.3378 78.2417 72.1037C77.8885 72.5452 77.6236 73.075 77.447 73.6047C77.0056 74.0462 76.829 74.576 76.5641 75.1058C76.4758 75.1058 76.4758 75.1941 76.4758 75.2824C76.2992 75.3706 76.1226 75.5472 76.1226 75.8121C76.0343 75.9004 76.0343 75.9004 76.0343 75.9887C75.8577 75.9887 75.8577 76.077 75.8577 76.2536C75.1513 77.1366 74.445 78.0195 73.9152 79.0791C73.4737 79.344 73.2088 79.6972 73.0322 80.1386C72.9439 80.1386 72.8556 80.227 72.8556 80.3152C72.7673 80.3152 72.7673 80.4035 72.7673 80.4918C72.5025 80.6684 72.2376 80.845 72.1493 81.1982C71.9727 81.1982 71.9727 81.2865 71.9727 81.3748C71.9727 81.8163 71.8844 81.8163 71.8844 81.9929ZM46.4551 57.4465C53.3422 57.4465 60.2293 57.4465 67.1164 57.4465C68.1759 57.4465 69.1472 57.3582 70.2068 57.005C74.9748 55.6806 78.1534 50.9126 77.5353 45.968C76.9173 40.9351 72.5907 36.9618 67.6462 36.9618C53.6071 36.9618 39.4797 36.9618 25.4406 36.9618C23.9395 36.9618 22.5268 37.315 21.2023 37.9331C16.6992 40.1405 14.4918 44.9085 15.6397 49.7647C16.6992 54.1796 20.8491 57.3582 25.7054 57.3582C32.5925 57.4465 39.4797 57.4465 46.4551 57.4465ZM47.6912 73.3398C47.6912 73.2515 47.6912 73.2515 47.6912 73.3398C44.336 73.3398 40.9807 73.3398 37.6254 73.3398C35.7712 73.3398 34.4468 74.576 34.4468 76.4302C34.4468 78.0195 35.7712 79.5206 37.5371 79.5206C44.2477 79.5206 50.9582 79.5206 57.6687 79.5206C59.3463 79.5206 60.759 78.0195 60.759 76.3419C60.759 74.6643 59.4346 73.3398 57.6687 73.3398C54.3134 73.2515 51.0465 73.3398 47.6912 73.3398Z" fill="white"/>
<path d="M119.152 84.636L139.762 21.636H150.022L170.632 84.636H164.602L159.202 67.896H130.582L125.182 84.636H119.152ZM132.202 62.676H157.582L145.432 25.056H144.352L132.202 62.676ZM201.707 85.896C197.207 85.896 193.247 85.116 189.827 83.556C186.467 81.936 183.827 79.506 181.907 76.266C179.987 73.026 179.027 68.946 179.027 64.026V21.636H184.787V64.026C184.787 69.666 186.257 73.866 189.197 76.626C192.197 79.326 196.367 80.676 201.707 80.676C207.047 80.676 211.187 79.326 214.127 76.626C217.127 73.866 218.627 69.666 218.627 64.026V21.636H224.387V64.026C224.387 68.946 223.427 73.026 221.507 76.266C219.647 79.506 217.007 81.936 213.587 83.556C210.167 85.116 206.207 85.896 201.707 85.896ZM255.173 84.636V26.856H234.113V21.636H281.993V26.856H260.933V84.636H255.173ZM311.573 85.896C304.193 85.896 298.313 83.736 293.933 79.416C289.553 75.036 287.363 68.646 287.363 60.246V46.026C287.363 37.626 289.553 31.266 293.933 26.946C298.313 22.566 304.193 20.376 311.573 20.376C318.953 20.376 324.833 22.566 329.213 26.946C333.593 31.266 335.783 37.626 335.783 46.026V60.246C335.783 68.646 333.593 75.036 329.213 79.416C324.833 83.736 318.953 85.896 311.573 85.896ZM311.573 80.676C317.453 80.676 321.983 78.906 325.163 75.366C328.403 71.826 330.023 66.846 330.023 60.426V45.846C330.023 39.426 328.403 34.446 325.163 30.906C321.983 27.366 317.453 25.596 311.573 25.596C305.753 25.596 301.223 27.366 297.983 30.906C294.743 34.446 293.123 39.426 293.123 45.846V60.426C293.123 66.846 294.743 71.826 297.983 75.366C301.223 78.906 305.753 80.676 311.573 80.676Z" fill="white"/>
<path d="M345.684 84.636V74.196H353.964V32.076H345.684V21.636H378.084C381.924 21.636 385.254 22.296 388.074 23.616C390.954 24.876 393.174 26.706 394.734 29.106C396.354 31.446 397.164 34.266 397.164 37.566V38.466C397.164 41.346 396.624 43.716 395.544 45.576C394.464 47.376 393.174 48.786 391.674 49.806C390.234 50.766 388.854 51.456 387.534 51.876V53.496C388.854 53.856 390.294 54.546 391.854 55.566C393.414 56.526 394.734 57.936 395.814 59.796C396.954 61.656 397.524 64.086 397.524 67.086V67.986C397.524 71.466 396.714 74.466 395.094 76.986C393.474 79.446 391.224 81.336 388.344 82.656C385.524 83.976 382.224 84.636 378.444 84.636H345.684ZM365.844 73.836H377.004C379.584 73.836 381.654 73.206 383.214 71.946C384.834 70.686 385.644 68.886 385.644 66.546V65.646C385.644 63.306 384.864 61.506 383.304 60.246C381.744 58.986 379.644 58.356 377.004 58.356H365.844V73.836ZM365.844 47.556H376.824C379.284 47.556 381.294 46.926 382.854 45.666C384.474 44.406 385.284 42.666 385.284 40.446V39.546C385.284 37.266 384.504 35.526 382.944 34.326C381.384 33.066 379.344 32.436 376.824 32.436H365.844V47.556ZM431.73 85.896C423.81 85.896 417.51 83.736 412.83 79.416C408.15 75.036 405.81 68.796 405.81 60.696V45.576C405.81 37.476 408.15 31.266 412.83 26.946C417.51 22.566 423.81 20.376 431.73 20.376C439.65 20.376 445.95 22.566 450.63 26.946C455.31 31.266 457.65 37.476 457.65 45.576V60.696C457.65 68.796 455.31 75.036 450.63 79.416C445.95 83.736 439.65 85.896 431.73 85.896ZM431.73 75.276C436.17 75.276 439.62 73.986 442.08 71.406C444.54 68.826 445.77 65.376 445.77 61.056V45.216C445.77 40.896 444.54 37.446 442.08 34.866C439.62 32.286 436.17 30.996 431.73 30.996C427.35 30.996 423.9 32.286 421.38 34.866C418.92 37.446 417.69 40.896 417.69 45.216V61.056C417.69 65.376 418.92 68.826 421.38 71.406C423.9 73.986 427.35 75.276 431.73 75.276ZM492.37 85.896C487.21 85.896 482.77 84.966 479.05 83.106C475.39 81.186 472.57 78.486 470.59 75.006C468.67 71.466 467.71 67.296 467.71 62.496V21.636H479.59V62.856C479.59 66.696 480.67 69.726 482.83 71.946C485.05 74.166 488.23 75.276 492.37 75.276C496.51 75.276 499.66 74.166 501.82 71.946C504.04 69.726 505.15 66.696 505.15 62.856V21.636H517.03V62.496C517.03 67.296 516.04 71.466 514.06 75.006C512.14 78.486 509.32 81.186 505.6 83.106C501.94 84.966 497.53 85.896 492.37 85.896ZM528.539 84.636V21.636H551.129L563.639 76.536H565.259V21.636H576.959V84.636H554.369L541.859 29.736H540.239V84.636H528.539ZM603.412 84.636V32.436H585.052V21.636H633.652V32.436H615.292V84.636H603.412ZM657.942 84.636V62.946L636.522 21.636H649.752L663.072 48.636H664.692L678.012 21.636H691.242L669.822 62.946V84.636H657.942Z" fill="#05FFEF"/>
</g>
</g>
<defs>
<clipPath id="clip0_981_99">
<rect width="692" height="94" fill="white"/>
</clipPath>
</defs>
</svg>
